<?xml version="1.0" standalone="no"?>
<!DOCTYPE svg PUBLIC "-//W3C//DTD SVG 20010904//EN"
 "http://www.w3.org/TR/2001/REC-SVG-20010904/DTD/svg10.dtd">
<svg version="1.0" xmlns="http://www.w3.org/2000/svg"
 width="1346.000000pt" height="859.000000pt" viewBox="0 0 1346.000000 859.000000"
 preserveAspectRatio="xMidYMid meet">
<metadata>
Created by potrace 1.15, written by Peter Selinger 2001-2017
</metadata>
<g transform="translate(0.000000,859.000000) scale(0.100000,-0.100000)"
fill="#000000" stroke="none">
<path d="M5459 7426 c-2 -3 -433 -6 -958 -7 l-953 -2 7 -1586 c4 -872 9 -1589
12 -1593 2 -5 192 -8 422 -8 l417 0 3 -1587 c1 -874 4 -1589 6 -1591 5 -5
2766 -33 2980 -30 l200 3 92 175 91 175 1 1418 1 1417 225 0 224 0 -2 -1421
-2 -1422 279 -178 280 -179 140 0 c78 0 771 11 1541 25 770 14 1409 25 1421
25 11 0 21 6 21 13 6 97 20 3154 15 3159 -4 4 -185 36 -402 72 -370 60 -402
64 -509 59 l-114 -6 4 1534 4 1534 -1585 1 c-1044 0 -1394 -2 -1025 -7 308 -3
1019 -7 1579 -8 l1019 -1 -6 -1147 c-4 -632 -7 -1344 -7 -1584 l0 -437 -262
-6 c-145 -3 -854 -7 -1576 -9 l-1312 -2 0 1603 c0 1275 -3 1602 -12 1602 -7 0
-83 -22 -168 -49 l-155 -48 -6 -1489 c-3 -819 -6 -1490 -7 -1492 -1 -1 -46 -1
-99 0 l-98 3 4 1482 3 1482 -23 10 c-13 6 -124 31 -246 55 l-221 45 -619 1
c-341 0 -621 -2 -624 -4z m1211 -1601 l0 -1596 -1027 5 c-566 3 -1260 9 -1544
12 l-516 7 -6 426 c-4 234 -7 942 -7 1574 l0 1147 513 1 c640 2 2499 14 2550
17 l37 2 0 -1595z m4800 -1530 l315 -53 -126 -1 c-69 0 -268 -4 -442 -8 l-317
-6 0 61 0 62 128 -1 c105 0 181 -10 442 -54z m-3968 -2 c172 -68 160 -73 -166
-72 -143 1 -328 4 -410 8 l-149 6 199 52 c176 45 211 52 304 52 102 1 108 0
222 -46z m-1059 -83 l1137 0 0 -1590 0 -1590 -357 5 c-555 9 -2206 25 -2518
25 l-280 0 -4 1582 -4 1581 444 -6 c244 -4 956 -7 1582 -7z m5462 -1487 c-3
-824 -8 -1530 -11 -1570 l-6 -72 -51 -5 c-29 -3 -662 -14 -1407 -26 -745 -11
-1417 -23 -1494 -26 l-138 -6 3 1585 c3 872 7 1589 11 1592 7 7 1407 19 2601
23 l498 2 -6 -1497z"/>
<path d="M5508 7273 l-58 -4 0 -518 0 -518 -88 87 c-93 92 -188 154 -287 188
-207 69 -448 48 -624 -55 -162 -95 -307 -278 -386 -488 -84 -225 -104 -556
-49 -823 66 -321 262 -592 507 -702 111 -49 193 -63 335 -57 221 9 348 64 500
213 50 50 92 95 92 101 0 6 -42 -30 -92 -81 -79 -78 -108 -100 -188 -140 -116
-57 -201 -76 -345 -76 -138 0 -214 18 -334 77 -73 36 -110 62 -170 122 -192
189 -285 414 -314 755 -21 253 22 505 122 711 85 177 205 308 347 382 118 62
185 77 344 77 158 1 220 -13 350 -76 71 -35 102 -60 188 -145 57 -57 105 -103
108 -103 2 0 4 239 4 530 l0 530 308 0 309 0 6 -947 c4 -520 7 -1153 7 -1406
l0 -459 -31 6 c-17 3 -159 6 -316 6 l-284 0 3 135 c2 74 0 135 -4 135 -5 0 -8
-65 -8 -145 l0 -145 325 0 325 0 0 1420 0 1420 -272 -2 c-150 -1 -299 -3 -330
-5z"/>
<path d="M4950 6057 c-201 -71 -300 -267 -300 -592 0 -286 87 -493 241 -571
94 -47 233 -50 333 -6 100 45 188 170 223 320 25 107 25 406 0 506 -57 228
-182 345 -376 352 -51 2 -100 -2 -121 -9z m221 -21 c127 -39 201 -128 251
-303 20 -69 23 -100 23 -273 0 -159 -4 -208 -19 -265 -36 -136 -104 -238 -186
-280 -69 -35 -166 -50 -241 -36 -161 28 -258 136 -306 338 -25 109 -26 386 0
493 42 179 125 286 252 326 54 17 170 17 226 0z"/>
<path d="M4720 2643 c0 -787 3 -1434 8 -1436 4 -3 169 -7 367 -8 l360 -4 3
544 2 544 158 -6 c219 -9 310 -41 401 -144 70 -79 123 -174 311 -568 94 -198
177 -366 182 -372 8 -10 99 -13 394 -13 210 0 385 3 388 8 4 6 -313 666 -426
887 -117 229 -276 401 -413 445 -39 13 -39 13 -15 23 268 107 407 251 472 489
30 109 32 341 5 458 -31 128 -87 230 -176 319 -123 123 -289 195 -546 237
-102 17 -254 20 -1112 27 l-363 2 0 -1432z m1289 1401 c464 -21 750 -173 858
-454 39 -101 48 -160 48 -325 0 -184 -12 -243 -75 -370 -79 -161 -186 -247
-422 -343 -39 -16 -35 -27 15 -41 141 -42 270 -171 392 -391 46 -84 457 -923
452 -924 -1 -1 -171 0 -378 2 l-376 3 -118 247 c-261 546 -302 621 -395 713
-102 103 -186 130 -413 132 l-152 2 -3 -543 -2 -542 -348 6 c-191 4 -348 7
-348 8 -1 0 -4 639 -6 1419 l-5 1418 581 -6 c320 -3 632 -8 695 -11z"/>
<path d="M5440 3170 l0 -390 184 0 c296 0 410 24 492 106 25 24 53 64 64 89
43 100 43 295 1 391 -43 97 -139 162 -271 183 -36 6 -156 11 -267 11 l-203 0
0 -390z m450 364 c77 -10 165 -43 207 -79 50 -43 80 -111 95 -215 19 -138 -21
-294 -92 -354 -76 -63 -236 -93 -483 -88 l-157 3 0 375 0 376 193 -6 c105 -4
212 -9 237 -12z"/>
<path d="M10905 4073 l-119 -4 -518 -522 -518 -522 2 517 c2 385 0 519 -9 522
-26 10 -715 -7 -718 -18 -2 -6 -5 -656 -8 -1445 l-4 -1434 360 7 c197 3 363 9
368 12 5 3 9 247 9 556 l0 550 553 -546 552 -547 450 7 c248 3 452 8 455 11 2
2 -329 337 -735 743 l-740 740 55 57 c30 31 333 338 673 681 339 344 617 629
617 633 0 8 -443 9 -725 2z m634 -80 c-35 -38 -336 -343 -670 -680 l-605 -612
733 -733 733 -733 -197 -6 c-109 -4 -307 -7 -441 -8 l-244 -1 -552 550 c-304
303 -556 550 -559 550 -4 0 -7 -251 -7 -558 l0 -559 -122 -6 c-66 -4 -224 -7
-350 -7 l-230 0 7 1423 c4 782 8 1423 9 1424 1 1 159 5 350 9 l349 7 -7 -526
c-5 -342 -4 -527 2 -527 6 0 245 239 533 530 l522 530 405 0 405 0 -64 -67z"/>
<path d="M7890 7268 c0 -2 247 -653 548 -1448 l548 -1445 324 0 324 0 551
1440 c304 792 550 1443 548 1448 -7 12 -627 9 -640 -4 -6 -6 -183 -462 -394
-1014 -328 -857 -386 -1000 -395 -982 -6 12 -179 469 -385 1014 l-374 993
-327 0 c-181 0 -328 -1 -328 -2z m571 -14 l74 -7 385 -1018 c211 -561 389
-1018 394 -1016 8 3 150 370 762 1970 l26 67 304 0 c167 0 304 -3 304 -8 0 -4
-245 -646 -544 -1427 l-543 -1420 -313 0 -313 0 -523 1380 c-288 759 -532
1404 -543 1433 l-20 52 238 0 c131 0 271 -3 312 -6z"/>
</g>
</svg>
